<svg id="Layer_1" enable-background="new 0 0 512 512" height="512" viewBox="0 0 512 512" width="512" xmlns="http://www.w3.org/2000/svg"><g><path d="m464.382 480.42-4.401-49.202c-3.034-33.912-27.4-61.747-60.632-69.265l-90.26-20.418c-2.524-11.566-2.915-23.366-1.157-35.131l1.461-9.781h19.281c12.572 0 23.972-6.555 31.06-16.445 7.088 9.891 18.487 16.445 31.06 16.445h12.339c2.127 0 4.154-.903 5.577-2.485 1.422-1.582 2.106-3.694 1.881-5.809l-17.688-166.048c-7.427-69.711-65.894-122.281-136.001-122.281-36.803 0-71.336 14.415-97.237 40.588-2.913 2.944-2.889 7.693.056 10.606s7.693 2.889 10.606-.056c23.062-23.304 53.808-36.138 86.576-36.138 62.418 0 114.473 46.804 121.084 108.871l16.804 157.754h-3.997c-12.771 0-23.56-11.247-23.56-24.559 0-4.142-3.357-7.5-7.5-7.5s-7.5 3.358-7.5 7.5c0 13.313-10.789 24.559-23.56 24.559h-7.292c16.39-17.904 24.428-34.231 24.428-49.437 0-2.33-.094-4.612-.288-6.878-.088-.895-.168-1.843-.24-2.838 14.706-2.915 25.958-15.885 26.147-31.398.108-8.731-3.212-16.96-9.349-23.173-6.136-6.212-14.324-9.634-23.057-9.634-23.011 0-39.3-10.124-43.573-27.081-.729-2.897-3.109-5.084-6.057-5.568-2.947-.485-5.902.827-7.521 3.338l-.258.401c-10.639 16.514-16.499 25.61-45.928 28.68-10.112 1.055-28.634.71-43.517.433-6.358-.119-12.364-.23-17.198-.23-8.731 0-16.92 3.421-23.056 9.633-6.137 6.212-9.457 14.442-9.35 23.173.19 15.515 11.445 28.487 26.155 31.4-.075 1.049-.159 2.047-.251 2.987-.187 2.118-.281 4.39-.281 6.752 0 15.21 8.039 31.539 24.427 49.438h-9.291c-12.771 0-23.56-11.247-23.56-24.559 0-4.142-3.357-7.5-7.5-7.5s-7.5 3.358-7.5 7.5c0 13.313-10.789 24.559-23.56 24.559h-2.192l16.804-157.754c1.8-16.896 6.967-32.894 15.355-47.55 2.058-3.595.812-8.177-2.783-10.235-3.594-2.057-8.177-.811-10.234 2.784-9.427 16.469-15.232 34.439-17.254 53.413l-17.686 166.049c-.226 2.115.459 4.227 1.881 5.809 1.423 1.582 3.45 2.485 5.577 2.485h10.534c12.572 0 23.972-6.555 31.06-16.445 7.088 9.891 18.487 16.445 31.06 16.445h20.981l1.422 9.52c1.75 11.716 1.37 23.461-1.124 34.978l-91.97 20.824c-33.223 7.523-57.583 35.357-60.615 69.262l-4.402 49.212c-.724 8.083 2.003 16.155 7.481 22.146 5.483 5.995 13.289 9.434 21.416 9.434h87.368c4.143 0 7.5-3.358 7.5-7.5s-3.357-7.5-7.5-7.5h-16.046v-58.568c0-4.142-3.357-7.5-7.5-7.5s-7.5 3.358-7.5 7.5v15.191l-66.807-10.69.929-10.388c2.451-27.397 22.138-49.889 48.988-55.969l23.593-5.342 65.602 73.323c-1.171 4.402-1.796 9.024-1.796 13.789 0 15.168 6.327 28.885 16.479 38.653h-20.951c-4.143 0-7.5 3.358-7.5 7.5s3.357 7.5 7.5 7.5h236.609c8.127 0 15.934-3.438 21.416-9.434 5.479-5.989 8.207-14.061 7.483-22.145zm-118.554-305.778c2.063.876 3.956 2.156 5.58 3.801 3.297 3.337 5.08 7.757 5.022 12.448-.092 7.476-4.965 13.852-11.671 16.215-.056-10.077.312-21.654 1.069-32.464zm-176.589 32.438c-6.707-2.363-11.582-8.74-11.673-16.216-.057-4.69 1.727-9.111 5.023-12.448 1.625-1.645 3.517-2.925 5.58-3.801.758 10.799 1.127 22.37 1.07 32.465zm-36.402 261.734v28.186h-56.322c-3.985 0-7.659-1.619-10.347-4.557-2.683-2.934-3.965-6.728-3.611-10.686l2.133-23.848zm50.353-236.628c0-1.925.075-3.755.216-5.363 1.244-12.679 1.091-34.106-.289-53.508 2.776.042 5.735.097 8.775.153 7.554.141 15.577.291 23.108.291 8.511 0 16.393-.191 22.244-.802 28.544-2.978 40.297-12.137 49.496-24.42 8.669 13.718 24.375 22.486 44.172 24.356-1.407 19.5-1.571 41.121-.327 53.787.149 1.749.225 3.602.225 5.508 0 16.781-15.987 38.587-46.246 63.071-7.735 6.29-17.48 9.75-27.481 9.75h-.09c-10.036-.016-19.809-3.451-27.592-9.785-30.232-24.459-46.211-46.257-46.211-63.038zm37.882 75.576c10.226 7.91 22.889 12.248 35.81 12.247h.23c12.803 0 25.329-4.244 35.477-11.98-1.427 12.426-.782 24.861 1.924 37.066-1.499 1.252-3.038 2.518-4.604 3.785-9.212 7.49-20.816 11.611-32.72 11.611h-.202c-11.894 0-23.518-4.13-32.757-11.65-1.712-1.385-3.4-2.775-5.048-4.157 2.679-12.16 3.313-24.543 1.89-36.922zm-12.272 47.79c1.949 1.643 3.952 3.297 5.979 4.937 11.891 9.677 26.875 15.002 42.179 15.002h.26c15.311 0 30.276-5.314 42.141-14.961 1.885-1.526 3.737-3.052 5.535-4.563l19.206 4.344-43.918 49.653c-7.02-3.377-14.884-5.271-23.181-5.271-8.799 0-17.111 2.129-24.446 5.9l-44.524-50.338zm-52.522 11.893 15.067-3.411 48.888 55.272c-3.214 3.028-6.055 6.448-8.447 10.182zm100.722 129.555c-21.313 0-38.653-17.34-38.653-38.653s17.34-38.653 38.653-38.653 38.653 17.34 38.653 38.653-17.34 38.653-38.653 38.653zm114.663-66.068c-4.143 0-7.5 3.358-7.5 7.5v58.568h-69.989c10.153-9.768 16.479-23.486 16.479-38.653 0-5.325-.78-10.47-2.231-15.33l19.147-21.278c2.771-3.079 2.521-7.821-.559-10.592-3.078-2.769-7.82-2.521-10.592.559l-14.964 16.63c-2.482-3.665-5.406-7.009-8.693-9.953l48.026-54.296 15.097 3.415-17.17 19.285c-2.754 3.094-2.479 7.834.614 10.589 1.43 1.272 3.21 1.898 4.984 1.898 2.066 0 4.123-.849 5.604-2.513l22.684-25.478 23.438 5.302c26.857 6.076 46.55 28.569 49.002 55.972l.928 10.377-66.807 10.69v-15.191c.002-4.143-3.356-7.501-7.498-7.501zm74.169 61.511c-2.688 2.939-6.362 4.557-10.348 4.557h-56.321v-28.186l68.147-10.905 2.133 23.847c.353 3.959-.929 7.754-3.611 10.687z"/><path d="m257 434.461c-13.171 0-23.886 10.715-23.886 23.886s10.715 23.886 23.886 23.886 23.886-10.715 23.886-23.886-10.716-23.886-23.886-23.886zm0 32.771c-4.899 0-8.886-3.986-8.886-8.886s3.986-8.886 8.886-8.886c4.899 0 8.886 3.986 8.886 8.886s-3.987 8.886-8.886 8.886z"/><path d="m236.814 271.749h40.372c4.143 0 7.5-3.358 7.5-7.5s-3.357-7.5-7.5-7.5h-40.372c-4.143 0-7.5 3.358-7.5 7.5s3.357 7.5 7.5 7.5z"/></g></svg>